<?xml version="1.0" encoding="utf-8"?>
<!-- Generator: Adobe Illustrator 19.1.0, SVG Export Plug-In . SVG Version: 6.00 Build 0)  -->
<svg version="1.1" id="Layer_1" xmlns="http://www.w3.org/2000/svg" xmlns:xlink="http://www.w3.org/1999/xlink" x="0px" y="0px"
	 viewBox="0 0 928.8 283.5" style="enable-background:new 0 0 928.8 283.5;" xml:space="preserve">
<style type="text/css">
	.st0{fill:#006E96;}
	.st1{fill:#009ABF;}
	.st2{fill:#00556F;}
	.st3{fill:#ffffff;}
</style>
<g>
	<rect x="172.7" y="70.9" class="st0" width="41.9" height="141.7"/>
	<polygon class="st1" points="162.2,212.6 120.4,212.6 70.9,70.9 112.7,70.9 	"/>
	<path class="st2" d="M280,70.9c-31.6,8.1-55,36.7-55,70.9c0,34.1,23.4,62.8,55,70.9C280,206.1,280,78.6,280,70.9z"/>
	<path class="st3" d="M385.1,167.6c-2.5-3.1-5.7-5.4-9.7-6.8c3-1.5,5.5-3.6,7.6-6.3c2.7-3.5,4-8.3,4-14.4v-2.3
		c0-8.2-2.3-14.3-6.9-18.2c-4.5-3.8-12.1-5.7-22.4-5.7h-35.9v98.8h35.9c10.6,0,18.6-2.2,23.8-6.5c5.3-4.4,7.9-11.2,7.9-20.2v-2.2
		C389.6,176.7,388.1,171.3,385.1,167.6z M377.5,140.3c0,5.8-1.5,10.1-4.5,12.7c-3,2.6-7.8,4-14.3,4h-27.1v-34.3h26.3
		c7.3,0,12.5,1.2,15.4,3.5c2.8,2.2,4.3,6.1,4.3,11.6V140.3z M374.8,200.2c-3.3,2.7-9,4.1-17,4.1h-26.3v-37.9h27.3
		c7.5,0,12.9,1.3,16.1,4c3.1,2.6,4.7,7.2,4.7,13.6v2.2C379.8,192.9,378.1,197.5,374.8,200.2z"/>
	<path class="st3" d="M453.6,154.7c-1.1-3-2.9-5.6-5.4-7.5c-2.4-1.9-5.6-3.3-9.4-4.2c-3.7-0.9-8.4-1.3-13.8-1.3
		c-3.3,0-21.2,0-21.2,0v8.5c0,0,17.9,0,21.2,0c4.3,0,7.9,0.3,10.7,0.9c2.7,0.6,4.8,1.4,6.3,2.6c1.5,1.2,2.5,2.8,3.1,4.8
		c0.6,2.1,0.9,4.8,0.9,7.9v6c-1.7-1.5-4.1-2.7-6.9-3.6c-3.7-1.2-8.8-1.8-15-1.8c-9.3,0-16.1,1.8-20.3,5.3c-4.3,3.6-6.4,9.3-6.4,17
		v1.9c0,7.5,2.1,13,6.4,16.3c4.2,3.3,11,5,20.4,5h22c3.6,0,5.9-0.6,7.2-1.8c1.3-1.2,1.9-3.4,1.9-6.7v-38.5
		C455.3,161.4,454.7,157.7,453.6,154.7z M406.6,189.4c0-5.2,1.3-8.9,3.8-10.9c2.6-2.1,7.1-3.1,13.5-3.1h1.7c3.3,0,6.3,0.2,8.9,0.7
		c2.5,0.4,4.7,1.2,6.3,2.2c1.7,1,2.9,2.3,3.8,4c0.9,1.7,1.3,3.9,1.3,6.6v15.2h-21.9c-3.5,0-6.4-0.3-8.7-0.8c-2.2-0.5-4-1.3-5.3-2.4
		c-1.3-1.1-2.1-2.3-2.7-3.9c-0.5-1.6-0.8-3.6-0.8-5.9V189.4z"/>
	<path class="st3" d="M523.4,155c-0.8-3.3-2.4-6-4.6-8.3c-2.2-2.2-5.2-4-9.1-5.1c-3.8-1.1-8.7-1.7-14.5-1.7
		c-5.9,0-10.8,0.6-14.5,1.8c-3.8,1.2-6.9,2.9-9.1,5.2c-2.2,2.2-3.8,5-4.6,8.3c-0.8,3.2-1.2,6.8-1.2,10.7v46.8h9.5v-46
		c0-3,0.2-5.7,0.6-8c0.4-2.2,1.2-4.1,2.5-5.5c1.3-1.5,3.3-2.6,5.9-3.4c2.7-0.8,6.4-1.2,11-1.2c4.5,0,8.2,0.4,10.9,1.2
		c2.6,0.8,4.6,1.9,5.9,3.4c1.3,1.5,2.2,3.3,2.5,5.5c0.4,2.3,0.6,5,0.6,8.1v46h9.5v-46.8C524.7,161.8,524.2,158.2,523.4,155z"/>
	<polygon class="st3" points="552.8,173.6 592.1,142 578.7,142 544.6,169.6 544.6,113.8 535.1,113.8 535.1,212.6 544.6,212.6 
		544.6,178.3 582.6,212.6 595.8,212.6 	"/>
	<path class="st3" d="M669.6,186.4h-38.3l-9.2,26.2h-18.5l36.8-98.8h21.1l36.8,98.8h-19.4L669.6,186.4z M636.3,171.4h28.3
		l-14.2-40.3L636.3,171.4z"/>
	<path class="st3" d="M706.2,113.8h42.6c10.4,0,17.9,2,22.5,6c4.7,4,7,10.2,7,18.6v1.4c0,5.1-1,9.4-3.1,12.8
		c-2.1,3.5-5.3,6.1-9.8,7.8c4.8,1.4,8.7,4,11.5,7.7c2.9,3.7,4.3,8.8,4.3,15.2v2.2c0,9.5-2.9,16.4-8.6,20.7
		c-5.7,4.3-13.8,6.4-24.2,6.4h-42.3V113.8z M724.6,128.9v25h21c5.3,0,9-1,11.1-2.9c2.1-1.9,3.2-5.1,3.2-9.4v-1.8c0-3.9-1-6.7-3-8.3
		c-2-1.7-5.3-2.5-10.1-2.5H724.6z M724.6,197.5h23c5.5,0,9.3-0.9,11.5-2.8c2.2-1.9,3.3-5.3,3.3-10.3v-1.8c0-5.2-1.2-8.8-3.6-10.8
		c-2.4-2-6.5-3-12.2-3h-22.1V197.5z"/>
	<path class="st3" d="M834.8,129.8c-5,0-9,0.3-12.1,1c-3.1,0.7-5.5,2.1-7.3,4.2c-1.8,2.1-2.9,5-3.5,8.7c-0.6,3.7-0.9,8.5-0.9,14.4
		v10.2c0,5.8,0.3,10.6,1,14.3c0.7,3.7,1.9,6.6,3.7,8.7c1.8,2.1,4.3,3.5,7.4,4.2c3.1,0.7,7.1,1.1,12,1.1c1.7,0,3.4,0,5.1,0
		c1.7,0,3.6,0,5.7,0c2.1,0,4.3,0,6.8-0.1c2.5,0,2.2-0.1,5.3-0.2v16c-5.5,0.2-10.1,0.3-13.9,0.3c-3.8,0-7,0-9.5,0
		c-8.2,0-14.9-0.8-20.4-2.4c-5.5-1.6-9.9-4.1-13.2-7.6c-3.3-3.5-5.7-8-7.1-13.7c-1.4-5.6-2.1-12.6-2.1-20.8v-10.1
		c0-8.3,0.7-15.3,2.2-21c1.5-5.6,3.9-10.2,7.3-13.7c3.4-3.5,7.8-5.9,13.2-7.4c5.4-1.5,12.1-2.2,19.9-2.2c3.1,0,6.7,0,10.6,0
		c3.9,0,6.8,0.1,13,0.3v16c-3.1-0.1-7.6-0.2-11.7-0.2C842.1,129.8,838.3,129.8,834.8,129.8z"/>
</g>
</svg>
